<?xml version="1.0" encoding="utf-8"?>
<svg width="307px" height="86px" viewBox="0 0 307 86" xmlns="http://www.w3.org/2000/svg">
  <title>Artboard 1</title>
  <desc>Created with Sketch.</desc>
  <defs>
    <path d="M232.649089,64.3615451 L235.385851,43.4437934 C235.385851,43.4437934 250.32457,43.0435702 253.49754,44.3740904 C256.67051,45.7046106 261.139292,48.6206203 259.700707,53.1364619 C262.408413,48.620619 271.906735,48.5554068 273.975447,53.0029984 C277.203529,49.188328 278.934648,45.3671477 278.934648,45.3671477 L293.001923,44.3740921 L305.771701,49.5264757 L279.830295,10.0625 L3.10351562,0.333984375 L0.68359375,76.3320312 L232.649089,64.3615451 Z" id="path-1"/>
    <linearGradient x1="0.0008712011575698852" y1="0.5000568771362305" x2="1.0002764129638673" y2="0.5000568771362305" id="linearGradient-3">
      <stop stop-color="#1C94E0" offset="0"/>
      <stop stop-color="#1CBCD6" offset="0.0883"/>
      <stop stop-color="#72E0FA" offset="0.336"/>
      <stop stop-color="#CAF183" offset="0.7917"/>
      <stop stop-color="#9CEF61" offset="1"/>
    </linearGradient>
    <linearGradient x1="-0.2777233123779297" y1="0.7972610473632813" x2="0.9032395172119141" y2="0.2276201629638672" id="linearGradient-4">
      <stop stop-color="#2C97CD" offset="0.0008"/>
      <stop stop-color="#1CCBDB" offset="0.206"/>
      <stop stop-color="#19D7DB" offset="0.3491"/>
      <stop stop-color="#59D6B8" offset="0.5382"/>
      <stop stop-color="#6BD5B5" offset="0.7181"/>
      <stop stop-color="#70E4A3" offset="0.8203"/>
      <stop stop-color="#79E990" offset="0.8964"/>
      <stop stop-color="#8CE079" offset="0.9919"/>
    </linearGradient>
    <linearGradient x1="-0.00040033500641584397" y1="0.4995272445678711" x2="1.0001061248779297" y2="0.4995272445678711" id="linearGradient-5">
      <stop stop-color="#1F7CCE" offset="0"/>
      <stop stop-color="#4273D2" offset="0.155"/>
      <stop stop-color="#2FADE0" offset="0.3729"/>
      <stop stop-color="#4AD3C9" offset="0.6069"/>
      <stop stop-color="#BDE186" offset="1"/>
    </linearGradient>
    <linearGradient x1="-0.0003129251673817635" y1="0.49980644226074217" x2="0.9993836975097656" y2="0.49980644226074217" id="linearGradient-6">
      <stop stop-color="#1C94E0" offset="0"/>
      <stop stop-color="#1CBCD6" offset="0.0883"/>
      <stop stop-color="#72E0FA" offset="0.336"/>
      <stop stop-color="#CAF183" offset="0.7917"/>
      <stop stop-color="#9CEF61" offset="1"/>
    </linearGradient>
    <linearGradient x1="-0.0004769539088010788" y1="0.5001100158691406" x2="0.9988005828857421" y2="0.5001100158691406" id="linearGradient-7">
      <stop stop-color="#2C97CD" offset="0.0008"/>
      <stop stop-color="#1CCBDB" offset="0.206"/>
      <stop stop-color="#19D7DB" offset="0.3491"/>
      <stop stop-color="#59D6B8" offset="0.5382"/>
      <stop stop-color="#6BD5B5" offset="0.7181"/>
      <stop stop-color="#70E4A3" offset="0.8203"/>
      <stop stop-color="#79E990" offset="0.8964"/>
      <stop stop-color="#8CE079" offset="1"/>
    </linearGradient>
    <linearGradient x1="0.9993597412109375" y1="0.49962581634521486" x2="-0.0004043145477771759" y2="0.49962581634521486" id="linearGradient-8">
      <stop stop-color="#1F7CCE" offset="0"/>
      <stop stop-color="#4273D2" offset="0.155"/>
      <stop stop-color="#2FADE0" offset="0.6924"/>
      <stop stop-color="#4AD3C9" offset="1"/>
      <stop stop-color="#BDE186" offset="1"/>
    </linearGradient>
  </defs>
  <g id="Page-1" stroke="none" stroke-width="1" fill="none" fill-rule="evenodd">
    <g id="Artboard-1">
      <g id="Group-3" transform="translate(232.000000, 50.000000)" fill="#19D7DB">
        <path d="M -123.885 -8.043 C -123.885 -5.023 -124.462 -2.376 -125.615 -0.103 C -126.775 2.164 -128.435 3.904 -130.595 5.117 C -132.755 6.337 -135.305 6.947 -138.245 6.947 C -141.212 6.947 -143.772 6.347 -145.925 5.147 C -148.078 3.94 -149.722 2.2 -150.855 -0.073 C -151.988 -2.353 -152.555 -5.01 -152.555 -8.043 C -152.555 -12.663 -151.292 -16.276 -148.765 -18.883 C -146.232 -21.49 -142.712 -22.793 -138.205 -22.793 C -135.265 -22.793 -132.715 -22.206 -130.555 -21.033 C -128.395 -19.866 -126.742 -18.17 -125.595 -15.943 C -124.455 -13.71 -123.885 -11.076 -123.885 -8.043 M -127.885 -8.043 C -127.885 -11.636 -128.785 -14.46 -130.585 -16.513 C -132.378 -18.566 -134.918 -19.593 -138.205 -19.593 C -141.512 -19.593 -144.068 -18.58 -145.875 -16.553 C -147.675 -14.533 -148.575 -11.696 -148.575 -8.043 C -148.575 -4.423 -147.662 -1.55 -145.835 0.577 C -144.015 2.704 -141.485 3.767 -138.245 3.767 C -134.905 3.767 -132.345 2.74 -130.565 0.687 C -128.778 -1.373 -127.885 -4.283 -127.885 -8.043 ZM -100.286 -4.663 C -100.286 3.077 -103.006 6.947 -108.446 6.947 C -111.86 6.947 -114.156 5.66 -115.336 3.087 L -115.436 3.087 C -115.383 3.2 -115.356 4.364 -115.356 6.577 L -115.356 15.257 L -119.046 15.257 L -119.046 -11.123 C -119.046 -13.403 -119.086 -14.913 -119.166 -15.653 L -115.596 -15.653 C -115.583 -15.6 -115.563 -15.403 -115.536 -15.063 C -115.51 -14.73 -115.48 -14.216 -115.446 -13.523 C -115.413 -12.823 -115.396 -12.343 -115.396 -12.083 L -115.316 -12.083 C -114.656 -13.45 -113.786 -14.453 -112.706 -15.093 C -111.626 -15.726 -110.206 -16.043 -108.446 -16.043 C -105.713 -16.043 -103.67 -15.126 -102.316 -13.293 C -100.963 -11.46 -100.286 -8.583 -100.286 -4.663 M -104.156 -4.583 C -104.156 -7.67 -104.573 -9.876 -105.406 -11.203 C -106.24 -12.53 -107.566 -13.193 -109.386 -13.193 C -110.853 -13.193 -112 -12.886 -112.826 -12.273 C -113.653 -11.653 -114.28 -10.69 -114.706 -9.383 C -115.14 -8.083 -115.356 -6.386 -115.356 -4.293 C -115.356 -1.38 -114.89 0.767 -113.956 2.147 C -113.03 3.527 -111.52 4.217 -109.426 4.217 C -107.593 4.217 -106.256 3.544 -105.416 2.197 C -104.576 0.85 -104.156 -1.41 -104.156 -4.583 ZM -92.858 -3.783 C -92.858 -1.236 -92.331 0.727 -91.278 2.107 C -90.225 3.487 -88.688 4.177 -86.668 4.177 C -85.068 4.177 -83.785 3.857 -82.818 3.217 C -81.858 2.57 -81.205 1.757 -80.858 0.777 L -77.618 1.697 C -78.945 5.197 -81.961 6.947 -86.668 6.947 C -89.948 6.947 -92.445 5.97 -94.158 4.017 C -95.878 2.057 -96.738 -0.85 -96.738 -4.703 C -96.738 -8.363 -95.878 -11.173 -94.158 -13.133 C -92.445 -15.086 -89.995 -16.063 -86.808 -16.063 C -80.288 -16.063 -77.028 -12.133 -77.028 -4.273 L -77.028 -3.783 L -92.858 -3.783 M -80.838 -6.613 C -81.045 -8.946 -81.641 -10.65 -82.628 -11.723 C -83.608 -12.796 -85.021 -13.333 -86.868 -13.333 C -88.661 -13.333 -90.081 -12.736 -91.128 -11.543 C -92.175 -10.343 -92.738 -8.7 -92.818 -6.613 L -80.838 -6.613 ZM -58.24 6.537 L -58.24 -7.533 C -58.24 -8.993 -58.383 -10.126 -58.67 -10.933 C -58.956 -11.74 -59.416 -12.323 -60.05 -12.683 C -60.676 -13.036 -61.596 -13.213 -62.81 -13.213 C -64.59 -13.213 -65.993 -12.603 -67.02 -11.383 C -68.046 -10.17 -68.56 -8.483 -68.56 -6.323 L -68.56 6.537 L -72.25 6.537 L -72.25 -10.913 C -72.25 -13.5 -72.29 -15.08 -72.37 -15.653 L -68.88 -15.653 C -68.866 -15.586 -68.853 -15.403 -68.84 -15.103 C -68.826 -14.796 -68.81 -14.45 -68.79 -14.063 C -68.77 -13.676 -68.746 -12.943 -68.72 -11.863 L -68.66 -11.863 C -67.813 -13.39 -66.833 -14.473 -65.72 -15.113 C -64.6 -15.746 -63.213 -16.063 -61.56 -16.063 C -59.126 -16.063 -57.346 -15.456 -56.22 -14.243 C -55.093 -13.036 -54.53 -11.04 -54.53 -8.253 L -54.53 6.537 L -58.24 6.537 ZM -35.561 -19.593 C -38.761 -19.593 -41.248 -18.563 -43.021 -16.503 C -44.801 -14.443 -45.691 -11.623 -45.691 -8.043 C -45.691 -4.503 -44.765 -1.656 -42.911 0.497 C -41.058 2.65 -38.551 3.727 -35.391 3.727 C -31.345 3.727 -28.305 1.724 -26.271 -2.283 L -23.071 -0.683 C -24.258 1.804 -25.928 3.697 -28.081 4.997 C -30.235 6.297 -32.735 6.947 -35.581 6.947 C -38.495 6.947 -41.015 6.344 -43.141 5.137 C -45.261 3.924 -46.881 2.194 -48.001 -0.053 C -49.115 -2.306 -49.671 -4.97 -49.671 -8.043 C -49.671 -12.65 -48.425 -16.26 -45.931 -18.873 C -43.445 -21.486 -40.001 -22.793 -35.601 -22.793 C -32.521 -22.793 -29.951 -22.19 -27.891 -20.983 C -25.825 -19.783 -24.308 -18 -23.341 -15.633 L -27.051 -14.403 C -27.718 -16.083 -28.795 -17.366 -30.281 -18.253 C -31.761 -19.146 -33.521 -19.593 -35.561 -19.593 ZM -18.641 6.537 L -18.641 -23.893 L -14.951 -23.893 L -14.951 6.537 L -18.641 6.537 ZM 9.45 -4.583 C 9.45 -0.696 8.597 2.197 6.89 4.097 C 5.184 5.997 2.704 6.947 -0.55 6.947 C -3.79 6.947 -6.236 5.96 -7.89 3.987 C -9.55 2.007 -10.38 -0.85 -10.38 -4.583 C -10.38 -12.236 -7.063 -16.063 -0.43 -16.063 C 2.964 -16.063 5.46 -15.13 7.06 -13.263 C 8.654 -11.396 9.45 -8.503 9.45 -4.583 M 5.58 -4.583 C 5.58 -7.643 5.124 -9.866 4.21 -11.253 C 3.304 -12.64 1.777 -13.333 -0.37 -13.333 C -2.53 -13.333 -4.09 -12.626 -5.05 -11.213 C -6.016 -9.8 -6.5 -7.59 -6.5 -4.583 C -6.5 -1.656 -6.026 0.544 -5.08 2.017 C -4.126 3.484 -2.63 4.217 -0.59 4.217 C 1.624 4.217 3.204 3.507 4.15 2.087 C 5.104 0.667 5.58 -1.556 5.58 -4.583 ZM 17.659 -15.653 L 17.659 -1.583 C 17.659 -0.123 17.802 1.01 18.089 1.817 C 18.375 2.624 18.832 3.207 19.459 3.567 C 20.092 3.92 21.015 4.097 22.229 4.097 C 24.009 4.097 25.412 3.487 26.439 2.267 C 27.459 1.054 27.969 -0.633 27.969 -2.793 L 27.969 -15.653 L 31.669 -15.653 L 31.669 1.797 C 31.669 4.384 31.709 5.964 31.789 6.537 L 28.299 6.537 C 28.285 6.47 28.272 6.287 28.259 5.987 C 28.245 5.687 28.229 5.34 28.209 4.947 C 28.189 4.56 28.165 3.827 28.139 2.747 L 28.079 2.747 C 27.232 4.274 26.249 5.357 25.129 5.997 C 24.015 6.63 22.632 6.947 20.979 6.947 C 18.545 6.947 16.765 6.344 15.639 5.137 C 14.512 3.924 13.949 1.924 13.949 -0.863 L 13.949 -15.653 L 17.659 -15.653 ZM 51.417 2.967 C 50.73 4.387 49.824 5.407 48.697 6.027 C 47.57 6.64 46.174 6.947 44.507 6.947 C 41.7 6.947 39.637 6.004 38.317 4.117 C 36.997 2.23 36.337 -0.626 36.337 -4.453 C 36.337 -12.193 39.06 -16.063 44.507 -16.063 C 46.187 -16.063 47.587 -15.756 48.707 -15.143 C 49.827 -14.523 50.73 -13.543 51.417 -12.203 L 51.457 -12.203 L 51.417 -14.693 L 51.417 -23.893 L 55.107 -23.893 L 55.107 1.967 C 55.107 4.274 55.147 5.797 55.227 6.537 L 51.697 6.537 C 51.657 6.317 51.614 5.81 51.567 5.017 C 51.52 4.224 51.497 3.54 51.497 2.967 L 51.417 2.967 M 40.217 -4.583 C 40.217 -1.476 40.627 0.747 41.447 2.087 C 42.267 3.427 43.6 4.097 45.447 4.097 C 47.54 4.097 49.057 3.374 49.997 1.927 C 50.944 0.474 51.417 -1.776 51.417 -4.823 C 51.417 -7.763 50.944 -9.916 49.997 -11.283 C 49.057 -12.65 47.554 -13.333 45.487 -13.333 C 43.627 -13.333 42.284 -12.646 41.457 -11.273 C 40.63 -9.9 40.217 -7.67 40.217 -4.583 Z" transform="matrix(1, 0, 0, 1, 0, 0)" style="white-space: pre; fill: rgb(0, 0, 0);"/>
      </g>
      <g id="Group-2" transform="translate(-3.000000, 4.000000)">
        <mask id="mask-2" fill="white">
          <path d="M232.649089,64.3615451 L235.385851,43.4437934 C235.385851,43.4437934 250.32457,43.0435702 253.49754,44.3740904 C256.67051,45.7046106 261.139292,48.6206203 259.700707,53.1364619 C262.408413,48.620619 271.906735,48.5554068 273.975447,53.0029984 C277.203529,49.188328 278.934648,45.3671477 278.934648,45.3671477 L293.001923,44.3740921 L305.771701,49.5264757 L279.830295,10.0625 L3.10351562,0.333984375 L0.68359375,76.3320312 L232.649089,64.3615451 Z" id="" transform="matrix(1, 0, 0, 1, 0, 0)"/>
        </mask>
        <g id="Mask"/>
        <g mask="url(#mask-2)" id="logo-open365-copy">
          <g transform="translate(6.000000, 6.000000)">
            <g>
              <g id="Layer_1">
                <g id="Group">
                  <g transform="translate(76.118455, 12.289916)" id="Shape" fill="#F5F6F7"/>
                  <g id="Shape" fill="#FFFFFF">
                    <path d="M18.3499846,51.1260504 C11.5808792,46.6470588 7.53028999,39.1365546 7.53028999,30.9978992 C7.53028999,21.3571429 13.2119889,12.6722689 22.0471667,8.87605042 L26.3152372,18.8445378 C21.4762783,20.947479 18.3499846,25.6995798 18.3499846,30.9978992 C18.3499846,35.4768908 20.579168,39.6008403 24.3035352,42.0588235 L18.3499846,51.1260504 L18.3499846,51.1260504 Z"/>
                    <path d="M28.0007173,58.4180672 C22.8083513,58.4180672 17.7790962,56.9159664 13.4294702,54.0483193 L20.8510196,42.7142857 C22.9714623,44.1071429 25.445312,44.8445378 28.0007173,44.8445378 C35.1776002,44.8445378 41.0224101,38.9726891 41.0224101,31.762605 C41.0224101,27.6659664 39.1738191,23.8970588 35.9387847,21.3844538 L44.1758889,10.6512605 C50.7546983,15.7310924 54.5334358,23.4327731 54.5334358,31.762605 C54.5062507,46.4558824 42.6263347,58.4180672 28.0007173,58.4180672 L28.0007173,58.4180672 Z"/>
                    <path d="M36.319377,65 L31.9969362,43.7247899 C37.5698945,42.5777311 41.6204837,37.5798319 41.6204837,31.8445378 C41.6204837,26.737395 38.4126345,22.1491597 33.6280459,20.4285714 L40.9408546,0 C54.2615842,4.80672269 63.2055027,17.6155462 63.2055027,31.8445378 C63.2055027,39.6827731 60.4598012,47.3298319 55.5121017,53.3655462 C50.6459576,59.3193277 43.8224818,63.4432773 36.319377,65 L36.319377,65 Z"/>
                    <path d="M28.5987909,60.6302521 C21.6937596,60.6302521 15.06058,58.1176471 9.86821396,53.5840336 C4.73021826,49.0777311 1.35925812,42.9054622 0.380592274,36.1596639 L14.6256174,34.0567227 C15.1149503,37.3886555 16.7732452,40.447479 19.3286505,42.6869748 C21.8840558,44.9264706 25.2006456,46.1827731 28.5987909,46.1827731 C32.4590839,46.1827731 36.0475254,44.6533613 38.7388565,41.8676471 L49.0692182,51.9453782 C43.6593709,57.5168067 36.3737473,60.6302521 28.5987909,60.6302521 L28.5987909,60.6302521 Z"/>
                    <path d="M18.5946511,21.9306723 L8.42740035,11.6890756 C13.8100625,6.28151261 20.9869454,3.30462185 28.5987909,3.30462185 C36.0203402,3.30462185 43.0341121,6.14495798 48.3895891,11.3067227 L38.4126345,21.7394958 C35.7756738,19.1722689 32.295973,17.7794118 28.625976,17.7794118 C24.8200533,17.7794118 21.258797,19.2542017 18.5946511,21.9306723 L18.5946511,21.9306723 Z"/>
                    <path d="M16.229542,30.2605042 L0.10874065,28.6491597 C0.625258736,23.3508403 2.60977559,18.2710084 5.7904396,13.9558824 C10.3575469,7.78361345 17.0179117,3.71428571 24.5753868,2.45798319 L27.2395328,18.5168067 C23.8413875,19.0903361 20.8510196,20.9201681 18.8121324,23.6785714 C17.3441336,25.6176471 16.4470233,27.8844538 16.229542,30.2605042 L16.229542,30.2605042 Z"/>
                    <path d="M53.0110667,36.3781513 L45.9157393,35.1764706 C46.0788503,34.1932773 46.1604058,33.210084 46.1604058,32.1995798 C46.1604058,22.3676471 38.2223384,14.3928571 28.4356799,14.3928571 C24.8200533,14.3928571 21.3403525,15.4852941 18.404355,17.5336134 L14.3265806,11.5798319 C18.4859105,8.68487395 23.3792397,7.18277311 28.4628651,7.18277311 C42.2185573,7.18277311 53.391659,18.407563 53.391659,32.2268908 C53.3644739,33.592437 53.2557332,35.012605 53.0110667,36.3781513 L53.0110667,36.3781513 Z"/>
                  </g>
                  <g id="Shape">
                    <path d="M18.3499846,51.1260504 C11.5808792,46.6470588 7.53028999,39.1365546 7.53028999,30.9978992 C7.53028999,21.3571429 13.2119889,12.6722689 22.0471667,8.87605042 L26.3152372,18.8445378 C21.4762783,20.947479 18.3499846,25.6995798 18.3499846,30.9978992 C18.3499846,35.4768908 20.579168,39.6008403 24.3035352,42.0588235 L18.3499846,51.1260504 L18.3499846,51.1260504 Z" fill="url(#linearGradient-3)"/>
                    <path d="M28.0007173,58.4180672 C22.8083513,58.4180672 17.7790962,56.9159664 13.4294702,54.0483193 L20.8510196,42.7142857 C22.9714623,44.1071429 25.445312,44.8445378 28.0007173,44.8445378 C35.1776002,44.8445378 41.0224101,38.9726891 41.0224101,31.762605 C41.0224101,27.6659664 39.1738191,23.8970588 35.9387847,21.3844538 L44.1758889,10.6512605 C50.7546983,15.7310924 54.5334358,23.4327731 54.5334358,31.762605 C54.5062507,46.4558824 42.6263347,58.4180672 28.0007173,58.4180672 L28.0007173,58.4180672 Z" fill="#4FD3F4"/>
                    <path d="M36.319377,65 L31.9969362,43.7247899 C37.5698945,42.5777311 41.6204837,37.5798319 41.6204837,31.8445378 C41.6204837,26.737395 38.4126345,22.1491597 33.6280459,20.4285714 L40.9408546,0 C54.2615842,4.80672269 63.2055027,17.6155462 63.2055027,31.8445378 C63.2055027,39.6827731 60.4598012,47.3298319 55.5121017,53.3655462 C50.6459576,59.3193277 43.8224818,63.4432773 36.319377,65 L36.319377,65 Z" fill-opacity="0.82" fill="url(#linearGradient-4)"/>
                    <path d="M28.5987909,60.6302521 C21.6937596,60.6302521 15.06058,58.1176471 9.86821396,53.5840336 C4.73021826,49.0777311 1.35925812,42.9054622 0.380592274,36.1596639 L14.6256174,34.0567227 C15.1149503,37.3886555 16.7732452,40.447479 19.3286505,42.6869748 C21.8840558,44.9264706 25.2006456,46.1827731 28.5987909,46.1827731 C32.4590839,46.1827731 36.0475254,44.6533613 38.7388565,41.8676471 L49.0692182,51.9453782 C43.6593709,57.5168067 36.3737473,60.6302521 28.5987909,60.6302521 L28.5987909,60.6302521 Z" style="mix-blend-mode: multiply;" fill="url(#linearGradient-5)"/>
                    <path d="M18.5946511,21.9306723 L8.42740035,11.6890756 C13.8100625,6.28151261 20.9869454,3.30462185 28.5987909,3.30462185 C36.0203402,3.30462185 43.0341121,6.14495798 48.3895891,11.3067227 L38.4126345,21.7394958 C35.7756738,19.1722689 32.295973,17.7794118 28.625976,17.7794118 C24.8200533,17.7794118 21.258797,19.2542017 18.5946511,21.9306723 L18.5946511,21.9306723 Z" fill="url(#linearGradient-6)"/>
                    <path d="M16.229542,30.2605042 L0.10874065,28.6491597 C0.625258736,23.3508403 2.60977559,18.2710084 5.7904396,13.9558824 C10.3575469,7.78361345 17.0179117,3.71428571 24.5753868,2.45798319 L27.2395328,18.5168067 C23.8413875,19.0903361 20.8510196,20.9201681 18.8121324,23.6785714 C17.3441336,25.6176471 16.4470233,27.8844538 16.229542,30.2605042 L16.229542,30.2605042 Z" style="mix-blend-mode: multiply;" fill="url(#linearGradient-7)"/>
                    <path d="M53.0110667,36.3781513 L45.9157393,35.1764706 C46.0788503,34.1932773 46.1604058,33.210084 46.1604058,32.1995798 C46.1604058,22.3676471 38.2223384,14.3928571 28.4356799,14.3928571 C24.8200533,14.3928571 21.3403525,15.4852941 18.404355,17.5336134 L14.3265806,11.5798319 C18.4859105,8.68487395 23.3792397,7.18277311 28.4628651,7.18277311 C42.2185573,7.18277311 53.391659,18.407563 53.391659,32.2268908 C53.3644739,33.592437 53.2557332,35.012605 53.0110667,36.3781513 L53.0110667,36.3781513 Z" fill-opacity="0.6" fill="url(#linearGradient-8)"/>
                  </g>
                </g>
              </g>
            </g>
          </g>
        </g>
      </g>
    </g>
  </g>
</svg>